<svg width="120" height="120" viewBox="0 0 120 120" fill="none" xmlns="http://www.w3.org/2000/svg">
<path d="M30.1129 113.95C24.8249 113.95 20.0355 112.591 15.7447 109.871C11.484 107.121 8.09973 103.087 5.59171 97.769C3.1139 92.4206 1.875 85.8635 1.875 78.0977C1.875 70.1204 3.15923 63.4877 5.72768 58.1997C8.29614 52.8815 11.7107 48.9079 15.9713 46.279C20.2621 43.6199 24.9609 42.2904 30.0676 42.2904C33.9656 42.2904 37.2139 42.9551 39.8126 44.2847C42.4415 45.584 44.5567 47.2158 46.1582 49.1799C47.7899 51.1138 49.0288 53.0175 49.8749 54.8909H50.4641V19.9901H69.7276V112.817H50.6908V101.667H49.8749C48.9684 103.601 47.6842 105.52 46.0222 107.423C44.3905 109.297 42.2602 110.853 39.6313 112.092C37.0326 113.331 33.8598 113.95 30.1129 113.95ZM36.2319 98.5849C39.3442 98.5849 41.9731 97.7388 44.1185 96.0467C46.2942 94.3243 47.9561 91.922 49.1044 88.8399C50.2828 85.7577 50.8721 82.1468 50.8721 78.007C50.8721 73.8673 50.2979 70.2714 49.1497 67.2195C48.0014 64.1676 46.3395 61.8106 44.1639 60.1487C41.9882 58.4868 39.3442 57.6558 36.2319 57.6558C33.0591 57.6558 30.3849 58.517 28.2092 60.2393C26.0336 61.9617 24.3868 64.3489 23.2687 67.4008C22.1507 70.4527 21.5917 73.9881 21.5917 78.007C21.5917 82.0561 22.1507 85.6369 23.2687 88.7492C24.417 91.8314 26.0638 94.2487 28.2092 96.0013C30.3849 97.7237 33.0591 98.5849 36.2319 98.5849Z" fill="black"/>
<path d="M50.2271 112.817V19.9901H69.5358V54.8909H70.1251C70.9712 53.0175 72.1949 51.1138 73.7965 49.1799C75.4282 47.2158 77.5434 45.584 80.1421 44.2847C82.7709 42.9551 86.0344 42.2904 89.9324 42.2904C95.0089 42.2904 99.6925 43.6199 103.983 46.279C108.274 48.9079 111.704 52.8815 114.272 58.1997C116.841 63.4877 118.125 70.1204 118.125 78.0977C118.125 85.8635 116.871 92.4206 114.363 97.769C111.885 103.087 108.501 107.121 104.21 109.871C99.9494 112.591 95.1751 113.95 89.8871 113.95C86.1402 113.95 82.9523 113.331 80.3234 112.092C77.7247 110.853 75.5944 109.297 73.9324 107.423C72.2705 105.52 71.0014 103.601 70.1251 101.667H69.2639V112.817H50.2271ZM69.1279 78.007C69.1279 82.1468 69.702 85.7577 70.8503 88.8399C71.9985 91.922 73.6605 94.3243 75.8361 96.0467C78.0118 97.7388 80.6558 98.5849 83.7681 98.5849C86.9107 98.5849 89.5698 97.7237 91.7454 96.0013C93.9211 94.2487 95.5679 91.8314 96.6859 88.7492C97.8342 85.6369 98.4083 82.0561 98.4083 78.007C98.4083 73.9881 97.8493 70.4527 96.7313 67.4008C95.6132 64.3489 93.9664 61.9617 91.7908 60.2393C89.6151 58.517 86.9409 57.6558 83.7681 57.6558C80.6255 57.6558 77.9664 58.4868 75.7908 60.1487C73.6454 61.8106 71.9985 64.1676 70.8503 67.2195C69.702 70.2714 69.1279 73.8673 69.1279 78.007Z" fill="black"/>
<path d="M84.4281 5.625V22.9878H36.4493V5.625H84.4281Z" fill="black"/>
</svg>
