<svg width="23" height="22" viewBox="0 0 23 22" fill="none" xmlns="http://www.w3.org/2000/svg">
<path d="M15.2073 20.2283V17.694C15.2407 17.273 15.1834 16.8497 15.0394 16.4523C14.8953 16.0549 14.6678 15.6925 14.3719 15.3893C17.1626 15.0802 20.0955 14.0294 20.0955 9.20798C20.0952 7.97511 19.6179 6.78951 18.7623 5.89658C19.1674 4.81795 19.1388 3.62571 18.6824 2.56751C18.6824 2.56751 17.6336 2.25845 15.2073 3.87441C13.1703 3.32589 11.0231 3.32589 8.98609 3.87441C6.55981 2.25845 5.51108 2.56751 5.51108 2.56751C5.05459 3.62571 5.02595 4.81795 5.43109 5.89658C4.56911 6.79613 4.09132 7.99245 4.09797 9.23447C4.09797 14.0206 7.03083 15.0714 9.82151 15.4158C9.52911 15.716 9.30361 16.074 9.15966 16.4665C9.01573 16.859 8.95659 17.2773 8.98609 17.694V20.2283" stroke="black" stroke-width="1.5" stroke-linecap="round" stroke-linejoin="round"/>
<path d="M8.98611 18.4622C6.31986 19.3215 4.09799 18.4622 2.76486 15.813" stroke="black" stroke-width="1.5" stroke-linecap="round" stroke-linejoin="round"/>
</svg>
