<svg width="22" height="22" viewBox="0 0 22 22" fill="none" xmlns="http://www.w3.org/2000/svg">
<path d="M10.9622 14.9064C12.9255 14.9064 14.5172 13.325 14.5172 11.3743C14.5172 9.4235 12.9255 7.8421 10.9622 7.8421C8.99882 7.8421 7.4072 9.4235 7.4072 11.3743C7.4072 13.325 8.99882 14.9064 10.9622 14.9064Z" stroke="black" stroke-width="1.5" stroke-linecap="round" stroke-linejoin="round"/>
<path d="M2.96347 14.9064V7.84209C2.96347 5.40364 4.95301 3.42688 7.40722 3.42688H14.5172C16.9714 3.42688 18.961 5.40364 18.961 7.84209V14.9064C18.961 17.3448 16.9714 19.3216 14.5172 19.3216H7.40722C4.95301 19.3216 2.96347 17.3448 2.96347 14.9064Z" stroke="black" stroke-width="1.5"/>
<path d="M15.8503 6.52559L15.8585 6.51657" stroke="black" stroke-width="1.5" stroke-linecap="round" stroke-linejoin="round"/>
</svg>
