<svg width="23" height="19" viewBox="0 0 23 19" fill="none" xmlns="http://www.w3.org/2000/svg">
<path d="M21.2999 1.45331C21.2999 1.45331 19.5065 2.50599 18.5092 2.80436C17.9739 2.19287 17.2626 1.75945 16.4713 1.56274C15.68 1.36603 14.8471 1.41551 14.0851 1.70449C13.3231 1.99347 12.6687 2.50801 12.2106 3.17852C11.7525 3.84903 11.5127 4.64315 11.5236 5.45349V6.33653C9.96174 6.37676 8.41413 6.03259 7.01856 5.33466C5.62298 4.63673 4.4228 3.60672 3.52488 2.33635C3.52488 2.33635 -0.0301247 10.2838 7.96863 13.8159C6.13827 15.0503 3.95784 15.6693 1.74738 15.582C9.74613 19.9972 19.5224 15.582 19.5224 5.42699C19.5216 5.18102 19.4978 4.93566 19.4513 4.69407C20.3583 3.80528 21.2999 1.45331 21.2999 1.45331Z" stroke="black" stroke-width="1.5" stroke-linecap="round" stroke-linejoin="round"/>
</svg>
