<svg width="25" height="24" viewBox="0 0 25 24" fill="none" xmlns="http://www.w3.org/2000/svg">
<g clip-path="url(#clip0_2_26)">
<path d="M8.15115 12.5083H4.49716C4.23315 12.5083 4.0191 12.7224 4.0191 12.9864V15.9392C4.0191 16.2033 4.23315 16.4174 4.49716 16.4174H7.94329C7.9469 16.4174 7.95042 16.4173 7.95403 16.4173C8.75725 16.3992 9.71471 16.0543 9.71471 14.5137C9.71471 12.9397 8.73409 12.5126 8.15115 12.5083ZM7.93772 15.4611H4.97521V13.4646H8.14754C8.29091 13.4664 8.75865 13.5477 8.75865 14.5137C8.75865 15.3013 8.49394 15.4478 7.93772 15.4611Z" fill="black"/>
<path d="M20.023 10.957C19.6399 10.5718 19.1125 10.3766 18.4556 10.3766C17.3275 10.3766 16.4526 10.9968 16.0552 12.0782C16.0013 12.2248 16.0225 12.3886 16.1119 12.5167C16.2013 12.6449 16.3477 12.7212 16.5039 12.7212H20.1502C20.293 12.7212 20.4284 12.6572 20.5192 12.547C20.6101 12.4368 20.6468 12.2917 20.6194 12.1515C20.5534 11.8138 20.3964 11.3325 20.023 10.957ZM17.3391 11.765C17.617 11.4777 17.9903 11.3327 18.4556 11.3327C18.8488 11.3327 19.1482 11.4332 19.3451 11.6312C19.3864 11.6728 19.4231 11.7178 19.4557 11.765H17.3391Z" fill="black"/>
<path d="M4.49715 10.5886H7.89961C8.14201 10.5886 8.50843 10.5886 8.81138 10.2938C9.09943 10.0135 9.23366 9.54995 9.23366 8.83506C9.23366 7.37757 8.27184 7.29432 8.16217 7.28964C8.15537 7.28936 8.14853 7.28922 8.14169 7.28922L4.49715 7.28936C4.23315 7.28936 4.0191 7.50348 4.0191 7.76748V10.1105C4.0191 10.3745 4.23315 10.5886 4.49715 10.5886ZM4.97521 8.24551L8.1167 8.24537C8.1722 8.2637 8.27756 8.42453 8.27756 8.83501C8.27756 9.46098 8.15828 9.59509 8.14468 9.60831C8.12003 9.63231 7.98201 9.63231 7.89952 9.63231H4.97516V8.24551H4.97521Z" fill="black"/>
<path d="M22.6611 9.31676C21.6651 8.18243 20.2319 7.60722 18.4013 7.60722C15.2205 7.60722 13.7033 9.30738 12.9906 10.7337C12.8253 11.0645 12.6961 11.3938 12.5952 11.7079C12.5066 11.5832 12.411 11.4665 12.3085 11.3582C12.2211 11.2658 12.1291 11.1798 12.0325 11.1002C12.5033 10.5979 12.9119 9.81701 12.9119 8.61991C12.9119 7.19946 12.4175 6.02013 11.4823 5.20943C10.6366 4.47644 9.48402 4.08902 8.14908 4.08902H0.954599C0.486109 4.08897 0.10498 4.47021 0.10498 4.93877V18.7681C0.10498 19.2367 0.486109 19.6179 0.954599 19.6179H8.13966C8.1519 19.6181 8.17135 19.6184 8.19745 19.6184C8.54212 19.6184 9.75815 19.5716 10.9351 18.9693C11.6229 18.6175 12.4309 18.002 12.9274 16.9458C13.1557 17.3935 13.4376 17.7978 13.7715 18.1555C14.8522 19.3137 16.4029 19.903 18.3806 19.9071C18.4154 19.9086 18.488 19.9111 18.5905 19.9111C19.0887 19.9111 20.3752 19.8506 21.5557 19.2903C23.1653 18.5265 23.9814 17.2444 23.9814 15.4795C23.9814 15.3118 23.9327 15.1554 23.8485 15.0236C23.9588 14.8999 24.0338 14.7434 24.0566 14.5692C24.0737 14.439 24.4517 11.3566 22.6611 9.31676ZM23.1189 14.353H16.4404C16.304 14.353 16.1741 14.4112 16.0833 14.5132C15.9926 14.6151 15.9498 14.7509 15.9656 14.8864C16.0562 15.6635 16.4161 16.2599 17.0065 16.6111C17.5591 16.9398 18.163 16.9753 18.397 16.9753C18.4447 16.9753 18.4757 16.9737 18.4857 16.9732C19.3413 16.9727 20.0015 16.759 20.3951 16.3553C20.7007 16.0419 20.781 15.7489 20.8003 15.5859H23.0244C22.9933 16.9119 22.378 17.8417 21.146 18.4263C20.141 18.9032 19.0241 18.9547 18.5906 18.9547C18.4928 18.9547 18.4315 18.9522 18.415 18.9514C18.4074 18.951 18.3999 18.9508 18.3924 18.9508C16.6849 18.9491 15.3655 18.462 14.4706 17.5031C13.9224 16.9155 13.542 16.1663 13.3398 15.276C13.2902 15.0574 13.0959 14.9037 12.8739 14.9037C12.8657 14.9037 12.8574 14.9039 12.8491 14.9043C12.617 14.9162 12.427 15.0934 12.3991 15.3243C12.2428 16.6133 11.6038 17.5532 10.4999 18.118C9.51317 18.6229 8.48827 18.6622 8.19764 18.6622C8.17814 18.6622 8.16474 18.662 8.15799 18.6618C8.15377 18.6617 8.14955 18.6617 8.14538 18.6617H1.06108V5.04518H8.14908C9.25071 5.04518 10.1868 5.35179 10.8561 5.93196C11.5755 6.55558 11.9558 7.48497 11.9558 8.61982C11.9558 9.59796 11.6239 10.3167 10.9694 10.756C10.8272 10.8514 10.7469 11.0157 10.7589 11.1866C10.7709 11.3574 10.8734 11.5088 11.0276 11.5834C11.2454 11.6888 11.4426 11.8341 11.6139 12.0153C11.9229 12.342 12.1508 12.7882 12.2912 13.3418C12.3479 13.5654 12.5564 13.7164 12.7862 13.7013C13.0164 13.686 13.2027 13.5085 13.2294 13.2794C13.2905 12.7538 13.447 11.9596 13.8459 11.1611C14.438 9.9761 15.709 8.56352 18.4012 8.56352C19.9447 8.56352 21.1362 9.02927 21.9426 9.94774C23.3127 11.5084 23.168 13.852 23.1189 14.353ZM19.8651 15.3092C19.8539 15.3657 19.8485 15.4236 19.8491 15.4823C19.8425 15.5053 19.8142 15.5812 19.7104 15.6877C19.5065 15.897 19.0588 16.017 18.4822 16.017C18.4657 16.017 18.4461 16.0176 18.4319 16.0185C18.4267 16.0188 18.4147 16.0191 18.397 16.0191C18.3109 16.0191 17.8629 16.008 17.4951 15.7892C17.3025 15.6747 17.1579 15.5158 17.0592 15.3092H19.8651Z" fill="black"/>
<path d="M21.1311 4.10345H15.4258C14.9573 4.10345 14.5762 4.46186 14.5762 4.90239V6.37193C14.5762 6.81246 14.9573 7.17091 15.4258 7.17091H21.1311C21.5996 7.17091 21.9807 6.81251 21.9807 6.37197V4.90239C21.9807 4.46186 21.5996 4.10345 21.1311 4.10345ZM21.0246 6.21466H15.5322V5.05971H21.0246V6.21466Z" fill="black"/>
<path d="M2.01717 14.7731C1.75317 14.7731 1.53912 14.9872 1.53912 15.2512V17.6418C1.53912 17.9059 1.75317 18.12 2.01717 18.12C2.28118 18.12 2.49523 17.9059 2.49523 17.6418V15.2512C2.49523 14.9872 2.28118 14.7731 2.01717 14.7731Z" fill="black"/>
<path d="M2.01717 13.0518C1.75317 13.0518 1.53912 13.2659 1.53912 13.53V13.769C1.53912 14.0331 1.75317 14.2472 2.01717 14.2472C2.28118 14.2472 2.49523 14.0331 2.49523 13.769V13.53C2.49523 13.2659 2.28118 13.0518 2.01717 13.0518Z" fill="black"/>
</g>
<defs>
<clipPath id="clip0_2_26">
<rect width="23.9963" height="24" fill="white" transform="translate(0.10498)"/>
</clipPath>
</defs>
</svg>
